<svg width="1280" height="720" xmlns="http://www.w3.org/2000/svg" xmlns:xlink="http://www.w3.org/1999/xlink" overflow="hidden"><defs><clipPath id="clip0"><rect x="0" y="0" width="1280" height="720"/></clipPath></defs><g clip-path="url(#clip0)"><rect x="0" y="0" width="1280" height="720" fill="#3F3F3F"/><path d="M19 33.8338C19 19.0139 31.0138 7 45.8336 7L1236.17 7C1250.99 7 1263 19.0139 1263 33.8338L1263 141.166C1263 155.986 1250.99 168 1236.17 168L45.8336 168C31.0138 168 19 155.986 19 141.166Z" stroke="#5D5D5D" stroke-width="4.33333" stroke-miterlimit="8" fill="none" fill-rule="evenodd"/><path d="M19 211.929C19 194.295 33.2951 180 50.9289 180L607.071 180C624.705 180 639 194.295 639 211.929L639 667.071C639 684.705 624.705 699 607.071 699L50.9289 699C33.2951 699 19 684.705 19 667.071Z" stroke="#5D5D5D" stroke-width="4.33333" stroke-miterlimit="8" fill="none" fill-rule="evenodd"/><path d="M645 211.929C645 194.295 659.295 180 676.929 180L1233.07 180C1250.7 180 1265 194.295 1265 211.929L1265 667.071C1265 684.705 1250.7 699 1233.07 699L676.929 699C659.295 699 645 684.705 645 667.071Z" stroke="#5D5D5D" stroke-width="4.33333" stroke-miterlimit="8" fill="none" fill-rule="evenodd"/></g></svg>